<svg width="598" height="548" fill="none" xmlns="http://www.w3.org/2000/svg">
  <g clip-path="url(#clip0)">
    <path d="M519.96 175.12c1.6-3.86 1.26-7.68-.38-11.42-2.42-5.52-5.05-10.97-5.65-17.1a4.74 4.74 0 00-2.18-3.54c-2.92-1.95-6.12-3.65-9.65-3.28-3.91.42-7.14-.16-10.35-2.66-3-2.35-6.27-4.47-9.99-5.75-1.18-.4-2.17-1.4-3-2.4-1.03-1.25-2.25-2.37-3.15-3.71-5.45-8.2-14.32-11.39-22.56-15.5-.3-.15-.65-.2-.98-.28-4.97-1.38-10.06-1.21-15.14-1.06-.69.02-1.39.17-1.94.55-1.44.99-2.57.56-3.84-.43-1.63-1.29-3.47-2.19-5.63-1.1-.33.17-.69.19-.96-.05-1.3-1.13-2.65-1.62-4.2-.44-.14.11-.4.06-.59-.01-3.34-1.29-7.1-1.05-10.3-2.95a9.26 9.26 0 00-5.27-1.32c-.84.05-1.68.17-2.12.97-.56 1.03-1.47 1.53-2.46 2a8.66 8.66 0 00-3.16 2.52c-.54.72-.93 1.2-1.92.48-1.26-.92-2.17-.23-2.67 1.05-.4.98-.4 2.1-.9 3.09.37-2.7.4-5.45 1.95-7.83.26-.4.49-1.05.12-1.33-1.36-1-1.04-2.3-.88-3.63.08-.62-.25-1.2-.61-1.69-1.21-1.63-2.43-3.26-3.59-4.93a2.8 2.8 0 00-2.22-1.26c-1.77-.1-3.57-.22-5.16.72-1.3.76-2.25.5-3.24-.52-1.07-1.12-2.06-2.37-3.5-3.07-2.77-1.35-5.84-2.13-8.23-4.24-.5-.44-1.24-.55-1.93-.6-1.66-.1-3.14-.71-4.63-1.4-2.76-1.28-5.62-2.04-8.67-1.14-.56.17-1.03 0-1.56-.2-3.3-1.31-5.71-.43-7.08 2.86a13.4 13.4 0 01-4.7 5.72 109.48 109.48 0 01-5.03 3.45 15.18 15.18 0 00-6.16 8.33c-.63 1.93-1.13 3.95-2.28 5.64a9.26 9.26 0 00-1.39 6.99c.08.24.16.47.26.7l.22-.42c.25.46.53 1 .1 1.41-.22.2-.57-.13-.56-.54l.23-.44a.77.77 0 00-.1-.16c-1.49-2.38-1.14-4.52.63-6.68 1.9-2.32 2.14-5.21 2.2-8.07.06-2.2-.42-2.64-2.59-2.69-2.9-.06-5.81 0-9.2-.03 2.03-.5 3.62-.7 5.25-.68 1.7.02 3.42-.07 4.84-1.16.96-.74 2-1.03 3.19-1.1 2.58-.13 4.64-1.74 6.94-2.66.56-.22.86-.86 1.05-1.45 1.18-3.66 3.55-6.76 4.79-10.4.74-2.16.26-3.77-1.89-4.53-.76-.27-1.6-.42-2.25-.9-2.6-1.95-5.34-1.78-8.04-.38a7.4 7.4 0 01-6.81.13c-1.66-.72-3.4-1.34-5.3-1.26-2.21.1-3.76 1.32-5.18 2.85-1.15 1.22-1.35 2.52-.77 4.1.41 1.13-.6 1.47-1.4 1.47-3.42 0-5.84 1.81-8.02 4.25.17-.8.3-1.54.39-2.28.1-.83.12-1.68-.7-2.17-.95-.57-1.68 0-2.37.59-.44.38-.82.8-1.16 1.24 1.33-1.97 2.8-3.87 3.6-6.13.8-2.22 2.27-3.86 4.17-5.11 4.65-3.05 8.32-7.1 11.98-11.21 3.05-3.45 3.66-7.43 3.37-11.76-.1-1.35-.75-2.12-2.12-2.27-.74-.08-1.47-.27-2.21-.34-1.63-.17-2.56-1.1-3.05-2.59-1.63-4.98-3.94-9.66-6.29-14.33a27.36 27.36 0 01-2.69-8.27c-.43-2.89-1.6-5.6-2.8-8.26-.24-.56-.56-1.18-1.25-1.21-.83-.04-1.09.7-1.36 1.3-.5 1.12-.9 2.34-1.92 3.08a19.1 19.1 0 00-3.56 3.61c-2.85 3.53-5.63 7.05-7.17 11.48-1.97 5.72-5.2 10.69-10.18 14.37-1.6 1.18-2 1.13-2.63-.77-.73-2.2-2.2-2.94-4.42-2.23-.26.08-.5.2-.76.3-2.44.92-3.55.53-4.85-1.76-.57-1-.99-2.1-1.73-2.99-2.27-2.68-4.98-4.8-8.69-4.35-3.55.44-7.01 1.09-10.66.88-3.41-.2-4.75 2.53-3.16 5.57.7 1.32 1.56 2.55 2.23 3.88.24.48.57 1.02.19 1.52-.4.5-1 .31-1.53.21-4.93-.97-9.93-1.33-14.91-1.85-2.44-.25-4.45.55-5.54 2.59-1.32 2.46-3.36 2.91-5.75 2.98-1.18.03-2.4.13-3.21 1.01a8.35 8.35 0 01-6.24 2.91c-.4 0-.83.12-1.16.35-2.12 1.52-3.78.55-5.41-.9-1.28-1.13-2.6-2.2-3.58-3.6-1.94-2.76-3.52-5.78-5.95-8.2-.65-.64-.58-1.63-.62-2.51-.24-4.99.82-9.7 2.92-14.2.92-1.97 1.84-3.93 2.71-5.92.52-1.2.93-2.69-.58-3.4a6.5 6.5 0 01-2.68-2.33 3.96 3.96 0 00-2.86-1.77c-1.44-.16-1.74-.8-1.05-2.03.23-.41.43-.85.62-1.28 1.3-2.93.58-5.2-2.05-7.03-1.75-1.22-3.67-.57-5.51-.8-1.57-.18-2.43.34-2.54 2.01-.15 2.05-1.34 3.46-2.91 4.68-4.92 3.8-10.68 5.13-16.67 5.5-2.68.17-5.09.47-7.08 2.41-1.43 1.4-3.3 1.92-5.2 2.02-3.25.19-6.5.16-9.75-.06-4.1-.28-8.02-1.29-11.96-2.25-.84-.2-1.85-.48-2.35.55-.49 1 .3 1.7.95 2.25 1.83 1.51 3.45 3.26 5.3 4.74 1.05.83 1.22 1.7.5 2.8-2 3.06-2.31 6.43-1.98 9.96.2 2.2 1.35 3.45 3.37 4.08 1.13.35 2.28.37 3.43.34 1.91-.05 3.78.3 5.65.63.5.09 1.14.25 1.13.94 0 .54-.5.78-.93.97-1.38.6-2.8 1.07-4.26 1.36a7.34 7.34 0 00-4.89 3.34 19.93 19.93 0 01-5.95 5.75c-2 1.28-3.87 2.73-5.72 4.23-1.73 1.42-3.2 3.14-5.08 4.38-3.03 1.98-6.13 2.75-9.52.75a91.47 91.47 0 01-4.3-2.7c-2.25-1.51-4.5-3.05-7.16-3.78-.98-.26-1.16-.99-1.3-1.83-.45-2.58-1.6-4.9-2.92-7.11-1.1-1.85-2.33-2.18-4.32-1.4-.77.3-1.45.74-2.05 1.3a4.08 4.08 0 01-3.54 1.1c-1.35-.18-2.79-.4-4.03.13-2.6 1.1-5.3.98-8 .98-2.18 0-4.35-.03-6.52.02-.82.02-1.62.14-2.19.85-2.16 2.73-.76 8 2.54 9.05 2.1.68 3.1 2.06 3.42 4.09.38 2.34-.13 3.02-2.47 3.06-1.92.03-3.79.27-5.6.84-1.41.45-2.66 1.18-3.07 2.71-.93 3.48-.67 6.72 2.04 9.43 1 1 2.07 1.95 3.12 2.91 2.8 2.57 4.62 5.53 4.51 9.58-.1 3.98-.9 7.8-1.87 11.61-2.27 8.8-4.86 17.52-6.97 26.35-.7 2.94-1.09 3.12-3.56 1.44-2.49-1.68-5.1-2.25-7.84-.72a47.64 47.64 0 01-13.93 4.93c-1.56.32-2.94.96-4.26 1.83-2.43 1.61-4.61 3.58-7.17 5a6.31 6.31 0 00-3.33 4.82c-.28 1.74-.38 3.69-1.55 5-2.52 2.82-2.5 5.67-1.14 8.98.79 1.9.18 2.55-2 3.04-2.45.55-4.17 1.87-4.65 4.48-.14.73-.5 1.4-.58 2.16-.06.56.08 1.17-.43 1.6v11c2.1 3.63 4.89 6.8 6.98 10.47 1.07 1.86 1.5 3.47.22 5.45-1.1 1.7-.59 2.44 1.47 2.53 2.17.1 4.34.08 6.5.02 2.49-.07 4.12 1.08 5.13 3.26.4.86.72 1.76 1.13 2.62.48 1.04 1.25 1.85 2.37 2.06 5.27.96 10.5 1.61 15.05-2.32a26.22 26.22 0 014.85-3.34c.96-.5 1.6-.38 1.42.92-.16 1.2-.22 2.43-.37 3.64-.51 4.34-.14 8.68.57 12.95.5 3.06 2.11 3.97 5.1 3.34a16.3 16.3 0 013.42-.33c4.61 0 9.22-.08 13.83.03 2.92.07 5.64-.52 8.27-1.74a36.95 36.95 0 017.87-2.69 6.4 6.4 0 004.89-3.84 12.28 12.28 0 015.01-5.45c3.24-2 6.84-2.9 10.5-3.7 1.64-.35 3.2-.41 4.73.45.6.35 1.25.44 1.96.27 2.28-.54 2.6-.3 2.78 2.03.07.87.03 1.76.04 2.64.06 4.88-.2 9.76.4 14.62.23 1.92.5 3.82 1.76 5.32 1.53 1.81 3.2 3.5 4.23 5.69.3.62.94.97 1.58 1.23 1.64.67 3.13 1.64 4.48 2.76 2.57 2.12 5.28 2.93 8.47 1.5a3.3 3.3 0 013.79.63 12.35 12.35 0 005.93 2.96c.87.19 1.77.48 2.37 1.12 2.2 2.34 5.04 3.28 8.03 4.03 1.38.35 2.67.98 3.97 1.56a4.92 4.92 0 012.73 2.6 5.44 5.44 0 003.42 2.97c2.12.76 4.3 1.28 6.56 1.22 1.7-.04 3.38.09 5.05.42 3.2.64 5.1 2.86 5.15 6.1.05 2.71.17 5.44-.02 8.13-.27 3.7.72 6.97 2.74 10a8.17 8.17 0 011.27 5.81c-.38 2.98-.08 3.29 2.92 3.32 6.36.07 12.7.86 19.06.84 1.58 0 2.13.77 2.12 2.28-.04 2.58-.03 5.15 0 7.73.03 2.84.57 3.61 3.4 4.14a7.72 7.72 0 015.28 3.76c1.42 2.24 2.6 4.6 3.79 6.96 1.7 3.35 1.78 6.76.52 10.25-.68 1.85-1.64 3.57-2.45 5.36-1.74 3.83-3.52 7.65-3.63 11.98-.04 1.64.31 3.1 1.62 4.2a4.54 4.54 0 011.63 3.38c.04.82.18 1.63.58 2.35 1.17 2.16 1.42 4.51 1.45 6.9.04 3.66-.03 7.32.02 10.98.03 2.53.6 3.07 3.17 3.12 2.84.06 5.67.06 8.52.34 3.14.3 6.3.7 9.5-.05 4.44-1.04 7.63.97 8.96 5.38.88 2.92 1.48 5.92 2.28 8.87.77 2.88 1.6 5.75 3 8.4 1.13 2.16 2.22 2.52 4.51 1.72 1.1-.39 2.13-.92 3.24-1.2 3.38-.86 6.25 1.26 5.98 4.64-.37 4.66-.37 9.34-1.17 13.96-.8 4.71-.75 4.75 3.95 4.07 2.81-.4 3.06-.28 4.13 2.32 2.36 5.76 2.35 11.91 2.92 17.97.18 2-.4 3.19-2.53 3.63-1.38.29-2.63 1.09-3.83 1.85a218.9 218.9 0 00-14.94 10.2c-1.48 1.12-2.8 2.36-3.5 4.13-.37.91-1.19 1.22-2 1.6a11.39 11.39 0 00-6.5 7.86c-.23.92-.38 1.89-1.04 2.62-3.98 4.42-6.67 9.7-9.94 14.6-.54.82-1.41 1.67-.68 2.76.68 1 1.81 1.14 2.92 1.1 1.63-.08 3.23-.36 4.83-.64a4.82 4.82 0 015.03 1.9c.7.92 1.45 1.8 2.39 2.48 1.8 1.3 3.07 3.03 4.06 5 .73 1.45 1.5 2.89 2.56 4.14 1.02 1.19 2.16 1.47 3.6.64 2.35-1.33 2.63-1.25 4.4.8 1.91 2.2 4.12 3.9 7 4.67 1.8.48 3.22 1.64 3.69 3.47.58 2.26 2.04 3.2 4.17 3.52a8.57 8.57 0 015.55 3.46c1.76 2.24 3.6 4.4 5.53 6.5 2.3 2.5 2.37 2.97.86 6.08a8.72 8.72 0 003.58 11.56h.81c3.24-1.85 5.11-4.76 6.35-8.16 1.6-4.4 2.48-9.03 4-13.45.93-2.69.98-5.15-.62-7.57-.68-1.04-.55-2.04.23-3 .84-1.06 1.71-2.11 2.38-3.3.77-1.34 1.6-2.48 3.4-2.43.77.03 1.34-.6 1.87-1.13 1.43-1.38 2.06-3.16 2.53-5.02.31-1.25.4-2.7 1.4-3.55 2.65-2.25 2.72-4.75 1.12-7.57-.09-.15-.03-.27.15-.34 1.48 1.32 2.66 3.12 5.01 3.11.84 0 .64.73.49 1.24-.3 1.04-.63 2.08-1.03 3.09-1.12 2.84-2.19 5.72-5.15 7.3-.8.42-1.22 1.28-1.43 2.15-.36 1.52-1.31 2.39-2.66 3.1a25.7 25.7 0 00-5.95 4.57c-.92.91-1.59 1.97-.66 3.23.87 1.18 2.04.9 3.13.41 2.06-.92 3.9-2.18 5.59-3.67a55.12 55.12 0 0012.61-16.56c2.08-4.06 3.51-8.36 5.3-12.53a84.71 84.71 0 0110.5-17.6c1.38-1.84 2.81-3.68 3.2-6.05a9.88 9.88 0 012.2-4.74 5.37 5.37 0 00.7-5.78c-1.82-4.16-3.58-8.28-3.63-12.93-.02-1.64-.8-3.15-1.1-4.75-.3-1.57-.13-2.84 1.8-3.2 1.11-.2 1.68-.94 1.25-2.09a2.19 2.19 0 01.42-2.43c.87-1 .98-2.11.06-3.12-.96-1.07-.44-1.68.54-2.2 1.43-.77 2.88-1.49 4.14-2.55 5-4.18 9.77-8.59 14.37-13.2 1.4-1.39 2.82-2.85 4.77-3.36a14.4 14.4 0 005.85-3.13c2.06-1.77 4.29-2.54 6.92-1.26 1.12.54 2.21.37 2.78-.83 1.85-3.93 5.21-6.11 8.9-7.96 1.83-.92 1.86-1.9.16-3.11-1.59-1.13-1.57-1.27.13-2.15 2.3-1.17 4.87-1.13 7.37-1.72-1.49.77-3.13 1-4.44 1.98-.49.36-1.03.79-.8 1.5.24.77.95.87 1.66.87.4 0 .8-.1 1.2-.23 3.48-1.12 6.96-2.3 9.97-4.46.7-.5 1.13-.65 1.53.28.93 2.17 2.78 2.73 4.87 2.41 3.09-.47 6.18-.75 9.3-.82 1.95-.05 3.63-.95 4.04-3.08.42-2.21 1.8-3.56 3.6-4.65a30.09 30.09 0 014.8-2.2c5.46-2.09 6.03-3.31 4.05-8.83-.45-1.25-.78-2.54 0-3.72 1.18-1.76 1.75-3.88 2.92-5.54a33.93 33.93 0 004.43-8.3c.76-2.15 2.45-3.9 3.88-5.7 2.83-3.56 4-7.56 2.95-12-1.38-5.83.09-10.93 3.86-15.33a10.5 10.5 0 002.57-7.04c.04-1.9 0-3.78.23-5.68a179 179 0 001.43-19.23c.09-6.24-.64-12.45-.46-18.69.05-2.06.44-4.24-1.26-5.97-.19-.19-.22-.51-.18-.77.39-2.8 0-5.73 1.77-8.25a4.47 4.47 0 00.6-4.46c-.7-1.53-.04-2.16 1.16-2.78.65-.33 1.18-1.07 1.95-.3.82.8.47 1.58-.16 2.32-.5.56-1.01 1.1-1.35 1.78-.24.48-.5.99-.03 1.5.44.47.97.38 1.5.2.33-.1.64-.24.93-.41 3.6-2.14 6.9-4.6 8.91-8.4 2.7-5.1 4.48-10.6 7.23-15.68 1.09-2 2.16-3.94 3.86-5.42 4.7-4.1 9.08-8.52 13.5-12.9 6.72-6.65 10.73-14.74 13.94-23.38a5.43 5.43 0 00-.24-4.72 2.73 2.73 0 01-.1-2.54zM293.91 87.05c-.4 1.05-.75 2.12-1.26 3.13.55-1.12.88-2.32 1.37-3.46.26-.58.55-1.14.87-1.68-.35.65-.67 1.33-.98 2zm171.33 155.62c-.44 0-.73-.24-.79-.68-.03-.28.06-.53.42-.47.4.08.7.3.89.66-.05.3-.22.49-.51.49z" fill="#003D6A"/>
  </g>
  <path fill-rule="evenodd" clip-rule="evenodd" d="M248.35 290.94c11.89-9.69 10.56-17.5 0-28.02-23.3-21.14-46.55-42.22-69.84-63.32-7.16-6.33-2.04-9.17 3.62-6.48 29.96 13.42 59.95 26.88 89.94 40.27 15.32 6.73 22.67-3.3 26.71-15.12 16.56-56.5 31.57-113.08 48.13-169.64 1.23-3.9 5.34-3.3 5.03.7-6 55.86-11.98 111.7-18 167.55-1 8.24 5.09 17.62 20.9 12.93 77.44-37.37 160.92-75.95 238.42-113.38 2.62-1.45 6.98 1.2 3.37 4.53-71.97 44.1-149.71 94.93-221.68 139.03-15.53 9.69-23.84 18.3-12.23 31.85 15.84 15.12 31.44 32.37 47.26 47.5 2.65 2.37 5.1 8.85-5.07 4.53-21.77-9.1-44.82-16.54-66.65-25.62-8.16-3.4-18.04-6.2-24.19 5.03-10.8 29.23-21.12 57-31 86.29-1.9 5.74-6.46 5.99-6.43.25.7-25.43.46-56.85 1.17-82.25-.7-11.57-5-14.16-14.86-11.5-23.25 8.14-46.45 15.45-69.7 23.63-7.79 3.18-10.04-.74-1.74-5.62-.03-.03 56.06-42.46 56.84-43.14z" fill="#E97512"/>
  <defs>
    <clipPath id="clip0">
      <path fill="#fff" d="M0 0h521v548H0z"/>
    </clipPath>
  </defs>
</svg>
