<svg width="60" height="69" fill="none" xmlns="http://www.w3.org/2000/svg">
  <path d="M47.41 33.11c.01.74-.61 1.38-1.35 1.38-.7 0-1.32-.61-1.36-1.31a1.36 1.36 0 011.33-1.4c.76 0 1.37.57 1.38 1.33z" fill="#fff"/>
  <path d="M58.15 46.5l-10.17-4.23c-.4-.17-.6-.35-.57-.83.05-.71.04-1.43 0-2.15-.04-.87-.63-1.44-1.38-1.41-.75.02-1.3.63-1.33 1.49v26.07c0 .87 0 .87-.89.87-1.98 0-3.96-.03-5.93 0-.58.02-.79-.1-.78-.74.04-3.17.02-6.33.02-9.5 0-1.55-.36-1.92-1.87-1.92H24.71c-1.43 0-1.82.39-1.82 1.82v9.77c0 .42-.07.58-.53.58a246.8 246.8 0 00-6.54 0c-.48 0-.52-.18-.52-.58V8.94c0-.51.13-.62.62-.62 9.38.02 18.76.02 28.14 0 .53 0 .65.14.65.66-.02 5.84-.01 11.68-.01 17.52 0 .23-.02.45.02.67.1.73.67 1.26 1.34 1.26.69 0 1.23-.5 1.33-1.25.04-.22.04-.45.04-.67v-9.97V7.3c0-1.22-.5-1.72-1.7-1.73-.58 0-1.16-.04-1.74.01-.55.05-.66-.17-.64-.68.04-1-.03-2.02.02-3.03.05-.8-.17-1.42-.83-1.88H17.46c-.65.46-.87 1.08-.83 1.88.06.99-.02 1.98.03 2.96.02.57-.08.82-.71.75-.62-.06-1.25-.03-1.87 0-.96.03-1.45.54-1.5 1.51v.61l.01 33.69c0 .47-.13.7-.57.89-3.44 1.42-6.87 2.86-10.3 4.3-1.05.43-1.21.67-1.21 1.8v18.8C.5 68.6.88 69 2.26 69h55.42c1.43 0 1.8-.37 1.8-1.83v-18.6c.01-1.34-.12-1.54-1.34-2.05zM19.3 3.24c-.03-.46.13-.55.55-.54H40.06c.47-.01.68.06.63.6a10.8 10.8 0 000 1.75c.03.45-.13.55-.56.55-4.24-.02-8.48-.01-12.73-.01h-7.53c-.42.01-.6-.07-.56-.53.05-.6.05-1.22 0-1.82zm-7.4 63.09c-2.7-.03-5.39-.03-8.08 0-.48 0-.66-.08-.66-.64.02-5.4.02-10.78 0-16.17 0-.46.13-.66.54-.83 2.93-1.2 5.84-2.43 8.87-3.7v.7c0 6.65-.01 13.3.01 19.95 0 .56-.13.7-.69.69zm22.5-4.8l.01 4.31c.01.38-.1.49-.47.48-2.62-.01-5.25-.02-7.87 0-.42.01-.5-.12-.5-.52.02-2.8.02-5.6 0-8.41 0-.42.1-.53.5-.52 2.6.02 5.2.02 7.8 0 .46 0 .55.13.54.56-.02 1.36 0 2.73 0 4.1zm22.42 4.16c0 .46-.06.65-.6.64-2.75-.03-5.5-.02-8.26 0-.43 0-.56-.1-.56-.55.02-3.37.02-6.74.02-10.1 0-3.36 0-6.7-.02-10.05 0-.54.08-.63.6-.4 2.75 1.18 5.51 2.32 8.28 3.45.41.17.54.38.54.84-.02 5.39-.02 10.78 0 16.17z" fill="#fff"/>
  <path d="M28.62 12.79c0-.98-.51-1.53-1.47-1.54-2.29-.03-4.57-.03-6.86 0-1 .01-1.48.56-1.49 1.58v8.35c0 .96.5 1.52 1.46 1.53 2.29.03 4.58.03 6.86 0 .96 0 1.5-.54 1.5-1.5.02-2.81.02-5.62 0-8.42zm-2.72 1.73c-.02.83 0 1.67 0 2.5 0 .82-.02 1.65 0 2.48 0 .33-.04.48-.42.47a104.9 104.9 0 00-3.53 0c-.33 0-.48-.05-.47-.43v-5.12c0-.38.14-.44.47-.43 1.15.01 2.3.03 3.46-.01.45-.01.5.16.5.54zM41.2 16.98v-4.1c0-1.07-.48-1.62-1.5-1.63-2.27-.03-4.53-.03-6.8 0-1 0-1.52.55-1.52 1.56-.02 2.78-.02 5.56 0 8.34 0 1.01.53 1.56 1.52 1.57 2.26.02 4.53.02 6.8 0 1.02-.01 1.5-.56 1.5-1.63V17zm-3.13 3c-1.2-.03-2.4-.02-3.6 0-.29 0-.37-.1-.37-.4v-5.17c0-.32.08-.43.4-.43 1.2.02 2.4.03 3.6 0 .4 0 .43.17.42.49v2.56c0 .83-.02 1.66 0 2.49.02.36-.1.46-.45.45zM28.62 40.69c0-1-.53-1.55-1.53-1.56-2.26-.02-4.53-.03-6.8 0-.99.01-1.49.57-1.49 1.58v8.28c0 1.1.49 1.6 1.58 1.6 2.23.02 4.45.02 6.67 0 1.04 0 1.57-.52 1.57-1.56.02-2.78.02-5.56 0-8.34zm-2.72 4.2c0 .85-.02 1.7 0 2.56.01.33-.1.42-.41.41h-3.6c-.32 0-.41-.1-.41-.42.01-1.7.02-3.41 0-5.12 0-.36.12-.45.46-.44 1.17.01 2.35.02 3.53 0 .36-.01.44.12.44.45-.03.86-.01 1.71-.01 2.56zM41.2 44.88V40.7c0-.99-.48-1.56-1.43-1.58a254 254 0 00-6.93 0c-.92.01-1.45.56-1.46 1.48-.02 2.83-.02 5.66 0 8.48 0 .95.52 1.49 1.44 1.5 2.3.02 4.62.02 6.93 0 .96-.01 1.44-.56 1.45-1.54v-4.17zm-3.17 2.98a85.48 85.48 0 00-3.46 0c-.4.01-.48-.13-.47-.5.02-.82 0-1.65 0-2.48 0-.86.02-1.71 0-2.56-.01-.37.1-.45.45-.45 1.18.02 2.36.02 3.53 0 .36 0 .45.13.45.47-.02 1.68-.02 3.37 0 5.05 0 .4-.14.48-.5.47zM28.62 26.69c0-.97-.56-1.48-1.51-1.49h-6.8c-.99 0-1.5.54-1.5 1.55v8.34c0 1.01.51 1.55 1.5 1.56h6.8c.94 0 1.5-.52 1.51-1.49.02-2.82.02-5.65 0-8.47zm-2.72 6.74c0 .35-.03.53-.45.52a82.26 82.26 0 00-3.53 0c-.36 0-.45-.13-.44-.47.02-.85 0-1.7 0-2.55 0-.83.02-1.66 0-2.49-.01-.38.05-.56.5-.55 1.15.04 2.3.03 3.45 0 .4 0 .48.13.48.5-.02 1.68-.02 3.36 0 5.04zM41.2 26.7c0-.96-.54-1.5-1.49-1.5h-6.8c-.96 0-1.52.5-1.53 1.47-.02 2.84-.02 5.7 0 8.54.01.93.58 1.44 1.5 1.44h6.8c.98 0 1.51-.53 1.52-1.53v-4.17-4.24zm-2.68 6.86c0 .28-.09.39-.38.39-1.22-.02-2.44-.02-3.66 0-.36 0-.38-.18-.38-.46v-2.62c0-.85.02-1.7 0-2.55 0-.32.09-.43.41-.42 1.2.02 2.4.01 3.6 0 .3 0 .42.09.41.42v5.24z" fill="#fff"/>
</svg>
