<svg width="79" height="67" viewBox="0 0 79 67" fill="none" xmlns="http://www.w3.org/2000/svg">
<mask id="path-1-outside-1" maskUnits="userSpaceOnUse" x="0.0020752" y="63.5991" width="79" height="4" fill="black">
<rect fill="white" x="0.0020752" y="63.5991" width="79" height="4"/>
<path d="M39.4677 64.6529C51.6688 64.6529 63.8699 64.6451 76.0711 64.6686C76.8102 64.6686 78.0655 64.2295 77.9951 65.5586C77.9364 66.668 76.7828 66.4877 75.9576 66.4877C51.6884 66.4916 27.4152 66.4916 3.14592 66.4877C2.69229 66.4877 2.23475 66.4877 1.79285 66.4014C1.31184 66.3074 0.98335 66.0055 1.0029 65.4527C1.02246 64.8725 1.38223 64.6726 1.89843 64.6608C2.35207 64.6529 2.8057 64.6529 3.25933 64.6529C15.3275 64.6529 27.3996 64.6529 39.4677 64.6529Z"/>
</mask>
<path d="M39.4677 64.6529C51.6688 64.6529 63.8699 64.6451 76.0711 64.6686C76.8102 64.6686 78.0655 64.2295 77.9951 65.5586C77.9364 66.668 76.7828 66.4877 75.9576 66.4877C51.6884 66.4916 27.4152 66.4916 3.14592 66.4877C2.69229 66.4877 2.23475 66.4877 1.79285 66.4014C1.31184 66.3074 0.98335 66.0055 1.0029 65.4527C1.02246 64.8725 1.38223 64.6726 1.89843 64.6608C2.35207 64.6529 2.8057 64.6529 3.25933 64.6529C15.3275 64.6529 27.3996 64.6529 39.4677 64.6529Z" fill="white"/>
<path d="M39.4677 64.6529C51.6688 64.6529 63.8699 64.6451 76.0711 64.6686C76.8102 64.6686 78.0655 64.2295 77.9951 65.5586C77.9364 66.668 76.7828 66.4877 75.9576 66.4877C51.6884 66.4916 27.4152 66.4916 3.14592 66.4877C2.69229 66.4877 2.23475 66.4877 1.79285 66.4014C1.31184 66.3074 0.98335 66.0055 1.0029 65.4527C1.02246 64.8725 1.38223 64.6726 1.89843 64.6608C2.35207 64.6529 2.8057 64.6529 3.25933 64.6529C15.3275 64.6529 27.3996 64.6529 39.4677 64.6529Z" stroke="white" mask="url(#path-1-outside-1)"/>
<mask id="path-2-outside-2" maskUnits="userSpaceOnUse" x="5.18689" y="57.4033" width="70" height="4" fill="black">
<rect fill="white" x="5.18689" y="57.4033" width="70" height="4"/>
<path d="M40.1832 58.4119C50.695 58.4119 61.2067 58.4119 71.7184 58.4119C72.2385 58.4119 72.7587 58.4001 73.2749 58.4315C73.7911 58.4589 74.1274 58.749 74.1547 59.2744C74.186 59.8389 73.7559 60.0977 73.3061 60.1839C72.8017 60.278 72.2737 60.2466 71.7536 60.2466C50.6637 60.2506 29.5776 60.2506 8.4877 60.2506C8.29217 60.2506 8.09664 60.2545 7.90502 60.2506C7.1229 60.2349 6.14524 60.3172 6.18826 59.2156C6.23128 58.2198 7.18547 58.4197 7.86591 58.4197C17.533 58.4158 27.2039 58.4158 36.8709 58.4158C37.9776 58.4119 39.0804 58.4119 40.1832 58.4119Z"/>
</mask>
<path d="M40.1832 58.4119C50.695 58.4119 61.2067 58.4119 71.7184 58.4119C72.2385 58.4119 72.7587 58.4001 73.2749 58.4315C73.7911 58.4589 74.1274 58.749 74.1547 59.2744C74.186 59.8389 73.7559 60.0977 73.3061 60.1839C72.8017 60.278 72.2737 60.2466 71.7536 60.2466C50.6637 60.2506 29.5776 60.2506 8.4877 60.2506C8.29217 60.2506 8.09664 60.2545 7.90502 60.2506C7.1229 60.2349 6.14524 60.3172 6.18826 59.2156C6.23128 58.2198 7.18547 58.4197 7.86591 58.4197C17.533 58.4158 27.2039 58.4158 36.8709 58.4158C37.9776 58.4119 39.0804 58.4119 40.1832 58.4119Z" fill="white"/>
<path d="M40.1832 58.4119C50.695 58.4119 61.2067 58.4119 71.7184 58.4119C72.2385 58.4119 72.7587 58.4001 73.2749 58.4315C73.7911 58.4589 74.1274 58.749 74.1547 59.2744C74.186 59.8389 73.7559 60.0977 73.3061 60.1839C72.8017 60.278 72.2737 60.2466 71.7536 60.2466C50.6637 60.2506 29.5776 60.2506 8.4877 60.2506C8.29217 60.2506 8.09664 60.2545 7.90502 60.2506C7.1229 60.2349 6.14524 60.3172 6.18826 59.2156C6.23128 58.2198 7.18547 58.4197 7.86591 58.4197C17.533 58.4158 27.2039 58.4158 36.8709 58.4158C37.9776 58.4119 39.0804 58.4119 40.1832 58.4119Z" stroke="white" mask="url(#path-2-outside-2)"/>
<mask id="path-3-outside-3" maskUnits="userSpaceOnUse" x="4.22815" y="-0.498779" width="71" height="23" fill="black">
<rect fill="white" x="4.22815" y="-0.498779" width="71" height="23"/>
<path d="M72.3755 18.8353C62.1336 12.8763 51.8683 6.95256 41.642 0.966098C40.6135 0.366276 39.8783 0.338833 38.8264 0.930814C28.123 6.98392 17.3806 12.9704 6.65765 18.9882C6.02413 19.345 5.01128 19.5253 5.26939 20.576C5.53531 21.6541 6.52469 21.2856 7.23642 21.2895C17.9437 21.3091 28.6509 21.3012 39.3582 21.3012C39.3582 21.2738 39.3582 21.2424 39.3582 21.215C50.132 21.215 60.9057 21.2228 71.6755 21.2032C72.4498 21.2032 73.5135 21.56 73.7873 20.4191C74.0297 19.3998 73.0051 19.1999 72.3755 18.8353ZM9.85654 19.3057C14.7565 16.5615 19.2889 14.021 23.8253 11.4767C28.8426 8.66185 33.8599 5.847 38.8733 3.02823C39.6085 2.61659 40.2225 2.26767 41.1571 2.81653C50.3549 8.21493 59.5917 13.5545 68.813 18.9176C68.899 18.9686 68.9459 19.0862 69.1141 19.3057C49.4437 19.3057 29.8789 19.3057 9.85654 19.3057Z"/>
</mask>
<path d="M72.3755 18.8353C62.1336 12.8763 51.8683 6.95256 41.642 0.966098C40.6135 0.366276 39.8783 0.338833 38.8264 0.930814C28.123 6.98392 17.3806 12.9704 6.65765 18.9882C6.02413 19.345 5.01128 19.5253 5.26939 20.576C5.53531 21.6541 6.52469 21.2856 7.23642 21.2895C17.9437 21.3091 28.6509 21.3012 39.3582 21.3012C39.3582 21.2738 39.3582 21.2424 39.3582 21.215C50.132 21.215 60.9057 21.2228 71.6755 21.2032C72.4498 21.2032 73.5135 21.56 73.7873 20.4191C74.0297 19.3998 73.0051 19.1999 72.3755 18.8353ZM9.85654 19.3057C14.7565 16.5615 19.2889 14.021 23.8253 11.4767C28.8426 8.66185 33.8599 5.847 38.8733 3.02823C39.6085 2.61659 40.2225 2.26767 41.1571 2.81653C50.3549 8.21493 59.5917 13.5545 68.813 18.9176C68.899 18.9686 68.9459 19.0862 69.1141 19.3057C49.4437 19.3057 29.8789 19.3057 9.85654 19.3057Z" fill="white"/>
<path d="M72.3755 18.8353C62.1336 12.8763 51.8683 6.95256 41.642 0.966098C40.6135 0.366276 39.8783 0.338833 38.8264 0.930814C28.123 6.98392 17.3806 12.9704 6.65765 18.9882C6.02413 19.345 5.01128 19.5253 5.26939 20.576C5.53531 21.6541 6.52469 21.2856 7.23642 21.2895C17.9437 21.3091 28.6509 21.3012 39.3582 21.3012C39.3582 21.2738 39.3582 21.2424 39.3582 21.215C50.132 21.215 60.9057 21.2228 71.6755 21.2032C72.4498 21.2032 73.5135 21.56 73.7873 20.4191C74.0297 19.3998 73.0051 19.1999 72.3755 18.8353ZM9.85654 19.3057C14.7565 16.5615 19.2889 14.021 23.8253 11.4767C28.8426 8.66185 33.8599 5.847 38.8733 3.02823C39.6085 2.61659 40.2225 2.26767 41.1571 2.81653C50.3549 8.21493 59.5917 13.5545 68.813 18.9176C68.899 18.9686 68.9459 19.0862 69.1141 19.3057C49.4437 19.3057 29.8789 19.3057 9.85654 19.3057Z" stroke="white" mask="url(#path-3-outside-3)"/>
<mask id="path-4-outside-4" maskUnits="userSpaceOnUse" x="22.1718" y="24.2429" width="10" height="32" fill="black">
<rect fill="white" x="22.1718" y="24.2429" width="10" height="32"/>
<path d="M26.3866 25.2451C24.1067 25.2726 23.2033 26.1429 23.1916 28.3971C23.176 32.294 23.1877 36.187 23.1877 40.0839C23.1877 44.0435 23.2112 48.007 23.1721 51.9666C23.1603 53.178 23.4888 54.1542 24.5642 54.754C27.6888 56.4986 30.9151 54.6599 30.919 51.1316C30.9268 43.9886 30.9229 36.8495 30.9229 29.7066C30.919 25.8763 30.2268 25.1981 26.3866 25.2451ZM29.1201 51.4491C29.1318 53.0761 28.381 53.3505 26.9732 53.3819C25.4402 53.4132 24.9084 52.8761 24.9357 51.355C25.0061 47.5954 24.9592 43.8318 24.9592 40.0682C24.9592 36.3712 25.0218 32.6704 24.9279 28.9734C24.8888 27.4092 25.4441 26.9348 26.9536 26.9819C28.3106 27.025 29.1357 27.1857 29.1201 28.8754C29.0575 36.3987 29.0654 43.9259 29.1201 51.4491Z"/>
</mask>
<path d="M26.3866 25.2451C24.1067 25.2726 23.2033 26.1429 23.1916 28.3971C23.176 32.294 23.1877 36.187 23.1877 40.0839C23.1877 44.0435 23.2112 48.007 23.1721 51.9666C23.1603 53.178 23.4888 54.1542 24.5642 54.754C27.6888 56.4986 30.9151 54.6599 30.919 51.1316C30.9268 43.9886 30.9229 36.8495 30.9229 29.7066C30.919 25.8763 30.2268 25.1981 26.3866 25.2451ZM29.1201 51.4491C29.1318 53.0761 28.381 53.3505 26.9732 53.3819C25.4402 53.4132 24.9084 52.8761 24.9357 51.355C25.0061 47.5954 24.9592 43.8318 24.9592 40.0682C24.9592 36.3712 25.0218 32.6704 24.9279 28.9734C24.8888 27.4092 25.4441 26.9348 26.9536 26.9819C28.3106 27.025 29.1357 27.1857 29.1201 28.8754C29.0575 36.3987 29.0654 43.9259 29.1201 51.4491Z" fill="white"/>
<path d="M26.3866 25.2451C24.1067 25.2726 23.2033 26.1429 23.1916 28.3971C23.176 32.294 23.1877 36.187 23.1877 40.0839C23.1877 44.0435 23.2112 48.007 23.1721 51.9666C23.1603 53.178 23.4888 54.1542 24.5642 54.754C27.6888 56.4986 30.9151 54.6599 30.919 51.1316C30.9268 43.9886 30.9229 36.8495 30.9229 29.7066C30.919 25.8763 30.2268 25.1981 26.3866 25.2451ZM29.1201 51.4491C29.1318 53.0761 28.381 53.3505 26.9732 53.3819C25.4402 53.4132 24.9084 52.8761 24.9357 51.355C25.0061 47.5954 24.9592 43.8318 24.9592 40.0682C24.9592 36.3712 25.0218 32.6704 24.9279 28.9734C24.8888 27.4092 25.4441 26.9348 26.9536 26.9819C28.3106 27.025 29.1357 27.1857 29.1201 28.8754C29.0575 36.3987 29.0654 43.9259 29.1201 51.4491Z" stroke="white" mask="url(#path-4-outside-4)"/>
<mask id="path-5-outside-5" maskUnits="userSpaceOnUse" x="33.8639" y="24.2449" width="10" height="32" fill="black">
<rect fill="white" x="33.8639" y="24.2449" width="10" height="32"/>
<path d="M42.6079 40.0683C42.6079 36.2381 42.6196 32.4078 42.604 28.5776C42.5962 26.1195 41.6889 25.2609 39.1705 25.2453C35.8894 25.2257 34.8962 25.9509 34.8844 28.5502C34.857 36.2773 34.857 44.0005 34.8844 51.7276C34.8922 54.3072 35.9403 55.1344 38.9436 55.1148C41.6302 55.0952 42.5922 54.2327 42.604 51.755C42.6196 47.8581 42.6079 43.9613 42.6079 40.0683ZM40.7816 40.0683C40.7816 43.8985 40.7425 47.7248 40.8012 51.5551C40.8207 52.9037 40.3476 53.4212 38.9906 53.3663C37.7587 53.3153 36.6286 53.429 36.6364 51.6492C36.6638 43.9926 36.6677 36.3361 36.6325 28.6795C36.6246 26.8565 37.8057 27.0565 39.0023 26.9977C40.328 26.931 40.8364 27.3858 40.809 28.7775C40.7269 32.5372 40.7816 36.3008 40.7816 40.0683Z"/>
</mask>
<path d="M42.6079 40.0683C42.6079 36.2381 42.6196 32.4078 42.604 28.5776C42.5962 26.1195 41.6889 25.2609 39.1705 25.2453C35.8894 25.2257 34.8962 25.9509 34.8844 28.5502C34.857 36.2773 34.857 44.0005 34.8844 51.7276C34.8922 54.3072 35.9403 55.1344 38.9436 55.1148C41.6302 55.0952 42.5922 54.2327 42.604 51.755C42.6196 47.8581 42.6079 43.9613 42.6079 40.0683ZM40.7816 40.0683C40.7816 43.8985 40.7425 47.7248 40.8012 51.5551C40.8207 52.9037 40.3476 53.4212 38.9906 53.3663C37.7587 53.3153 36.6286 53.429 36.6364 51.6492C36.6638 43.9926 36.6677 36.3361 36.6325 28.6795C36.6246 26.8565 37.8057 27.0565 39.0023 26.9977C40.328 26.931 40.8364 27.3858 40.809 28.7775C40.7269 32.5372 40.7816 36.3008 40.7816 40.0683Z" fill="white"/>
<path d="M42.6079 40.0683C42.6079 36.2381 42.6196 32.4078 42.604 28.5776C42.5962 26.1195 41.6889 25.2609 39.1705 25.2453C35.8894 25.2257 34.8962 25.9509 34.8844 28.5502C34.857 36.2773 34.857 44.0005 34.8844 51.7276C34.8922 54.3072 35.9403 55.1344 38.9436 55.1148C41.6302 55.0952 42.5922 54.2327 42.604 51.755C42.6196 47.8581 42.6079 43.9613 42.6079 40.0683ZM40.7816 40.0683C40.7816 43.8985 40.7425 47.7248 40.8012 51.5551C40.8207 52.9037 40.3476 53.4212 38.9906 53.3663C37.7587 53.3153 36.6286 53.429 36.6364 51.6492C36.6638 43.9926 36.6677 36.3361 36.6325 28.6795C36.6246 26.8565 37.8057 27.0565 39.0023 26.9977C40.328 26.931 40.8364 27.3858 40.809 28.7775C40.7269 32.5372 40.7816 36.3008 40.7816 40.0683Z" stroke="white" mask="url(#path-5-outside-5)"/>
<mask id="path-6-outside-6" maskUnits="userSpaceOnUse" x="46.265" y="24.2451" width="10" height="32" fill="black">
<rect fill="white" x="46.265" y="24.2451" width="10" height="32"/>
<path d="M54.9421 28.601C54.9264 25.9901 54.1052 25.253 51.3482 25.2452C48.1728 25.2373 47.289 25.9156 47.2812 28.5344C47.2577 36.2537 47.2616 43.9769 47.2812 51.6961C47.289 54.3424 48.2393 55.1226 51.2778 55.1108C54.1169 55.0991 54.9382 54.3189 54.946 51.5668C54.9577 47.8032 54.9499 44.0396 54.9499 40.276C54.9499 36.387 54.9655 32.494 54.9421 28.601ZM53.1823 40.0761C53.1823 43.9102 53.1393 47.7444 53.2058 51.5785C53.2292 52.9664 52.67 53.4172 51.356 53.3662C50.1398 53.3192 48.9588 53.4642 48.9627 51.6765C48.9823 44.0082 48.9862 36.3399 48.9588 28.6755C48.951 26.8565 50.1633 27.0525 51.356 27.0054C52.6426 26.9545 53.241 27.3544 53.2097 28.7775C53.1315 32.5371 53.1823 36.3046 53.1823 40.0761Z"/>
</mask>
<path d="M54.9421 28.601C54.9264 25.9901 54.1052 25.253 51.3482 25.2452C48.1728 25.2373 47.289 25.9156 47.2812 28.5344C47.2577 36.2537 47.2616 43.9769 47.2812 51.6961C47.289 54.3424 48.2393 55.1226 51.2778 55.1108C54.1169 55.0991 54.9382 54.3189 54.946 51.5668C54.9577 47.8032 54.9499 44.0396 54.9499 40.276C54.9499 36.387 54.9655 32.494 54.9421 28.601ZM53.1823 40.0761C53.1823 43.9102 53.1393 47.7444 53.2058 51.5785C53.2292 52.9664 52.67 53.4172 51.356 53.3662C50.1398 53.3192 48.9588 53.4642 48.9627 51.6765C48.9823 44.0082 48.9862 36.3399 48.9588 28.6755C48.951 26.8565 50.1633 27.0525 51.356 27.0054C52.6426 26.9545 53.241 27.3544 53.2097 28.7775C53.1315 32.5371 53.1823 36.3046 53.1823 40.0761Z" fill="white"/>
<path d="M54.9421 28.601C54.9264 25.9901 54.1052 25.253 51.3482 25.2452C48.1728 25.2373 47.289 25.9156 47.2812 28.5344C47.2577 36.2537 47.2616 43.9769 47.2812 51.6961C47.289 54.3424 48.2393 55.1226 51.2778 55.1108C54.1169 55.0991 54.9382 54.3189 54.946 51.5668C54.9577 47.8032 54.9499 44.0396 54.9499 40.276C54.9499 36.387 54.9655 32.494 54.9421 28.601ZM53.1823 40.0761C53.1823 43.9102 53.1393 47.7444 53.2058 51.5785C53.2292 52.9664 52.67 53.4172 51.356 53.3662C50.1398 53.3192 48.9588 53.4642 48.9627 51.6765C48.9823 44.0082 48.9862 36.3399 48.9588 28.6755C48.951 26.8565 50.1633 27.0525 51.356 27.0054C52.6426 26.9545 53.241 27.3544 53.2097 28.7775C53.1315 32.5371 53.1823 36.3046 53.1823 40.0761Z" stroke="white" mask="url(#path-6-outside-6)"/>
<mask id="path-7-outside-7" maskUnits="userSpaceOnUse" x="59.371" y="24.2432" width="10" height="32" fill="black">
<rect fill="white" x="59.371" y="24.2432" width="10" height="32"/>
<path d="M68.0386 28.3541C68.0269 25.8372 67.0375 25.2021 63.5962 25.2452C61.2928 25.2726 60.4012 26.1116 60.3856 28.3893C60.3582 32.2823 60.3777 36.1753 60.3777 40.0682C60.3777 43.9612 60.3621 47.8542 60.3817 51.7471C60.3934 54.2287 61.2928 55.0755 63.8347 55.1108C66.9789 55.1539 68.0308 54.4052 68.0386 51.9079C68.0738 44.0592 68.0777 36.2066 68.0386 28.3541ZM66.3649 51.6569C66.3688 53.4015 65.2152 53.331 63.9716 53.3662C62.6537 53.4015 62.0984 52.9624 62.1219 51.5746C62.1844 47.6777 62.1453 43.7769 62.1453 39.8801C62.1453 36.1753 62.1962 32.4705 62.118 28.7696C62.0867 27.3583 62.6498 26.9388 63.952 26.9976C65.1448 27.0525 66.3688 26.8526 66.3649 28.6599C66.3492 36.3242 66.3532 43.9926 66.3649 51.6569Z"/>
</mask>
<path d="M68.0386 28.3541C68.0269 25.8372 67.0375 25.2021 63.5962 25.2452C61.2928 25.2726 60.4012 26.1116 60.3856 28.3893C60.3582 32.2823 60.3777 36.1753 60.3777 40.0682C60.3777 43.9612 60.3621 47.8542 60.3817 51.7471C60.3934 54.2287 61.2928 55.0755 63.8347 55.1108C66.9789 55.1539 68.0308 54.4052 68.0386 51.9079C68.0738 44.0592 68.0777 36.2066 68.0386 28.3541ZM66.3649 51.6569C66.3688 53.4015 65.2152 53.331 63.9716 53.3662C62.6537 53.4015 62.0984 52.9624 62.1219 51.5746C62.1844 47.6777 62.1453 43.7769 62.1453 39.8801C62.1453 36.1753 62.1962 32.4705 62.118 28.7696C62.0867 27.3583 62.6498 26.9388 63.952 26.9976C65.1448 27.0525 66.3688 26.8526 66.3649 28.6599C66.3492 36.3242 66.3532 43.9926 66.3649 51.6569Z" fill="white"/>
<path d="M68.0386 28.3541C68.0269 25.8372 67.0375 25.2021 63.5962 25.2452C61.2928 25.2726 60.4012 26.1116 60.3856 28.3893C60.3582 32.2823 60.3777 36.1753 60.3777 40.0682C60.3777 43.9612 60.3621 47.8542 60.3817 51.7471C60.3934 54.2287 61.2928 55.0755 63.8347 55.1108C66.9789 55.1539 68.0308 54.4052 68.0386 51.9079C68.0738 44.0592 68.0777 36.2066 68.0386 28.3541ZM66.3649 51.6569C66.3688 53.4015 65.2152 53.331 63.9716 53.3662C62.6537 53.4015 62.0984 52.9624 62.1219 51.5746C62.1844 47.6777 62.1453 43.7769 62.1453 39.8801C62.1453 36.1753 62.1962 32.4705 62.118 28.7696C62.0867 27.3583 62.6498 26.9388 63.952 26.9976C65.1448 27.0525 66.3688 26.8526 66.3649 28.6599C66.3492 36.3242 66.3532 43.9926 66.3649 51.6569Z" stroke="white" mask="url(#path-7-outside-7)"/>
<mask id="path-8-outside-8" maskUnits="userSpaceOnUse" x="10.0433" y="24.2429" width="10" height="32" fill="black">
<rect fill="white" x="10.0433" y="24.2429" width="10" height="32"/>
<path d="M18.7023 28.3306C18.6867 25.8451 17.6426 25.1982 14.2208 25.2453C11.9565 25.2766 11.0649 26.1391 11.0532 28.4169C11.0336 32.3098 11.0493 36.2028 11.0493 40.0918C11.0493 43.9809 11.0375 47.8778 11.0532 51.7668C11.061 54.2406 11.9331 55.0678 14.5023 55.107C17.6191 55.154 18.6906 54.4052 18.7062 51.8727C18.7532 44.0279 18.7532 36.1793 18.7023 28.3306ZM16.9582 40.0722C16.9582 43.8397 16.9034 47.6112 16.9856 51.3748C17.0208 52.9586 16.3716 53.3938 14.9012 53.3702C13.5325 53.3506 12.7074 53.1429 12.7191 51.4688C12.7778 43.9338 12.7778 36.3949 12.7191 28.8599C12.7034 27.1702 13.5442 26.9938 14.9012 26.9742C16.3521 26.9546 17.0286 27.3544 16.9895 28.9579C16.8956 32.6666 16.9582 36.3714 16.9582 40.0722Z"/>
</mask>
<path d="M18.7023 28.3306C18.6867 25.8451 17.6426 25.1982 14.2208 25.2453C11.9565 25.2766 11.0649 26.1391 11.0532 28.4169C11.0336 32.3098 11.0493 36.2028 11.0493 40.0918C11.0493 43.9809 11.0375 47.8778 11.0532 51.7668C11.061 54.2406 11.9331 55.0678 14.5023 55.107C17.6191 55.154 18.6906 54.4052 18.7062 51.8727C18.7532 44.0279 18.7532 36.1793 18.7023 28.3306ZM16.9582 40.0722C16.9582 43.8397 16.9034 47.6112 16.9856 51.3748C17.0208 52.9586 16.3716 53.3938 14.9012 53.3702C13.5325 53.3506 12.7074 53.1429 12.7191 51.4688C12.7778 43.9338 12.7778 36.3949 12.7191 28.8599C12.7034 27.1702 13.5442 26.9938 14.9012 26.9742C16.3521 26.9546 17.0286 27.3544 16.9895 28.9579C16.8956 32.6666 16.9582 36.3714 16.9582 40.0722Z" fill="white"/>
<path d="M18.7023 28.3306C18.6867 25.8451 17.6426 25.1982 14.2208 25.2453C11.9565 25.2766 11.0649 26.1391 11.0532 28.4169C11.0336 32.3098 11.0493 36.2028 11.0493 40.0918C11.0493 43.9809 11.0375 47.8778 11.0532 51.7668C11.061 54.2406 11.9331 55.0678 14.5023 55.107C17.6191 55.154 18.6906 54.4052 18.7062 51.8727C18.7532 44.0279 18.7532 36.1793 18.7023 28.3306ZM16.9582 40.0722C16.9582 43.8397 16.9034 47.6112 16.9856 51.3748C17.0208 52.9586 16.3716 53.3938 14.9012 53.3702C13.5325 53.3506 12.7074 53.1429 12.7191 51.4688C12.7778 43.9338 12.7778 36.3949 12.7191 28.8599C12.7034 27.1702 13.5442 26.9938 14.9012 26.9742C16.3521 26.9546 17.0286 27.3544 16.9895 28.9579C16.8956 32.6666 16.9582 36.3714 16.9582 40.0722Z" stroke="white" mask="url(#path-8-outside-8)"/>
</svg>
